<?xml version="1.0" encoding="UTF-8" standalone="no"?>
<!DOCTYPE svg PUBLIC "-//W3C//DTD SVG 1.1//EN" "http://www.w3.org/Graphics/SVG/1.1/DTD/svg11.dtd">
<svg width="100%" height="100%" viewBox="0 0 200 192" version="1.1" xmlns="http://www.w3.org/2000/svg" xmlns:xlink="http://www.w3.org/1999/xlink" xml:space="preserve" xmlns:serif="http://www.serif.com/" style="fill-rule:evenodd;clip-rule:evenodd;stroke-linejoin:round;stroke-miterlimit:2;">
    <g transform="matrix(4.16667,0,0,4.16667,0,0)">
        <g transform="matrix(1.17693,0,0,1.45743,-0.144,-12.0502)">
            <path d="M19.994,38.851C19.264,35.981 18.023,30.703 18.023,27.983L18.024,27.922L18.023,27.861C18.023,26.91 18.417,25.456 18.893,24.049L22.136,24.049C22.611,25.456 23.006,26.91 23.006,27.861L23.005,27.922L23.006,27.983C23.006,30.703 21.765,35.981 21.035,38.851C20.878,39.135 20.7,39.313 20.514,39.313C20.329,39.313 20.151,39.135 19.994,38.851Z" style="fill:rgb(255,191,3);"/>
        </g>
        <g transform="matrix(1.17693,0,0,1.45743,10.0568,-26.1779)">
            <path d="M19.994,38.851C19.264,35.981 18.023,30.703 18.023,27.983L18.024,27.922L18.023,27.861C18.023,26.91 18.417,25.456 18.893,24.049L22.136,24.049C22.611,25.456 23.006,26.91 23.006,27.861L23.005,27.922L23.006,27.983C23.006,30.703 21.765,35.981 21.035,38.851C20.878,39.135 20.7,39.313 20.514,39.313C20.329,39.313 20.151,39.135 19.994,38.851Z" style="fill:rgb(255,191,3);"/>
        </g>
        <g transform="matrix(1.17693,0,0,1.45743,-9.18955,-35.0502)">
            <path d="M19.994,38.851C19.264,35.981 18.023,30.703 18.023,27.983L18.024,27.922L18.023,27.861C18.023,26.91 18.417,25.456 18.893,24.049L22.136,24.049C22.611,25.456 23.006,26.91 23.006,27.861L23.005,27.922L23.006,27.983C23.006,30.703 21.765,35.981 21.035,38.851C20.878,39.135 20.7,39.313 20.514,39.313C20.329,39.313 20.151,39.135 19.994,38.851Z" style="fill:rgb(255,191,3);"/>
        </g>
    </g>
</svg>
